<?xml version="1.0" standalone="no"?>
<!DOCTYPE svg PUBLIC "-//W3C//DTD SVG 1.1//EN" "http://www.w3.org/Graphics/SVG/1.1/DTD/svg11.dtd">
<svg xmlns="http://www.w3.org/2000/svg">
<metadata>Generated by Fontastic.me</metadata>
<defs>
<font id="rezility-mobile" horiz-adv-x="512">
<font-face font-family="rezility-mobile" units-per-em="512" ascent="480" descent="-32"/>
<missing-glyph horiz-adv-x="512" />

<glyph glyph-name="chat" unicode="&#101;" d="M116 3l-23 9 0 13 3 110-22 0c-29 0-52 24-52 52l0 261c0 29 23 52 52 52l364 0c29 0 52-23 52-52l0-265c0-29-23-52-52-52l-207 0z m-42 462c-9 0-16-8-16-17l0-261c0-9 7-16 16-16l47 0 11-12 0-8-2-80 76 86c6 6 13 10 22 10l210 0c9 0 16 7 16 16l0 265c0 9-7 17-16 17z m159-332z m-124 276l274 0 0-41-274 0z m0-74l274 0 0-42-274 0z m0-74l185 0 0-42-185 0z"/>
<glyph glyph-name="correct" unicode="&#103;" d="M16 240c-4 4-6 9-6 13 0 4 2 10 6 13l26 27c8 8 19 8 27 0l2-2 104-112c4-4 10-4 14 0l254 264 2 0c8 8 19 8 27 0l26-26c8-8 8-19 0-27l-304-315c-3-4-7-6-13-6-6 0-9 2-13 6l-148 159c0 0-4 6-4 6z"/>
<glyph glyph-name="location" unicode="&#106;" d="M297 13l4 275-291 0 492 210z m-138 305l173 0-2-149 114 271z"/>
<glyph glyph-name="profile" unicode="&#110;" d="M471 419l-139 1c0 1 0 2-1 3-14 41-59 63-100 48-20-7-36-21-45-40-1-2-2-4-3-6 0-1 0-2-1-3l-138 0c-21 0-37-17-37-37l0-309c0-20 16-36 37-36l426 0c20 0 37 16 37 36l0 306c0 20-17 36-36 37z m-258-5l1 3c5 12 15 21 27 25 5 2 10 3 16 3 7 0 14-2 20-5 12-6 21-15 25-27 3-9 3-19 1-28-4-16-16-28-30-33-12-4-25-4-37 2-12 5-20 15-25 29l0 3 0 0c-3 9-2 18 2 28z m252-333l-416 0 0 299 131 0c0-1 0-1 1-2l0-2c0-2 1-4 1-6 7-19 22-35 41-45 11-5 22-7 34-7 9 0 18 1 26 4 25 9 43 29 50 54 0 1 0 2 0 2l132-1 0-296z m-368 162l0-3c5-15 14-25 27-31 12-6 26-7 39-2 16 5 28 18 32 35 3 10 3 20-1 30-4 13-14 23-26 29-7 3-15 5-22 5-6 0-11-1-17-3-13-4-23-14-29-26l-2-4c-3-10-4-20-1-30z m61-52c-63 7-81-38-82-58-1-16-2-25-2-25 4 0 144 0 144 0 0 0 7 76-60 83z m133 67c-7 0-14-6-14-14l0-27c0-7 7-14 14-14l120 0c7 0 14 7 14 14l0 27c0 8-7 14-14 14z m120-97l-120 0c-7 0-14-7-14-14l0-27c0-8 7-14 14-14l120 0c7 0 14 6 14 14l0 27c0 7-7 14-14 14z"/>
<glyph glyph-name="setting" unicode="&#113;" d="M119 282l273 0c62 0 112 50 112 111 0 62-50 112-112 112l-273 0c-62 0-112-50-112-112 0-61 50-111 112-111z m0 185l273 0c41 0 73-33 73-74 0-40-32-73-73-73l-273 0c-40 0-73 33-73 73 0 41 33 74 73 74z m212-122l36 0c27 0 49 22 49 48 0 27-22 49-49 49l-36 0c-27 0-49-22-49-49 0-26 22-48 49-48z m61-122l-273 0c-62 0-111-50-111-111 0-62 50-112 111-112l273 0c62 0 112 50 112 112 0 61-50 111-112 111z m0-185l-273 0c-40 0-73 33-73 74 0 40 33 73 73 73l273 0c41 0 73-33 73-73 0-41-33-74-73-74z m-210 122l-41 0c-25 0-46-20-46-46l0-5c0-25 21-46 46-46l41 0c26 0 47 21 47 46l0 5c0 25-21 46-47 46z"/>
<glyph glyph-name="article" unicode="&#119;" d="M138 356c0 0-18 43 12 51 21 6 145-34 173-43 3-1 10-2 14-3 19-2 84-6 92 73 0 0 8 64-60 71-32 3-20-14-5-21 9-4 7-3 9-4 12-7 17-32-15-30 0 0-38 1-122 29-82 27-115-7-131-38-16-31-5-70 8-86 12-15 30-9 25 1m83 6c0 0-101-75-55-192 0 0 41-103 160-80 0 0 60 16 85 76 2 4 4 8 8 10 4 3 14 0 11-15-5-29-38-144-149-154-101-8-157 64-168 79-1 2-3 4-8 13-20 38-43 110 2 188 0 0 44 78 107 87 0 0 14 1 7-12z m-12-38l75 27c0 0 7-2 7-10 0-3 1-158 1-158 0 0 0-11-14-18-20-9-70-32-70-32 0 0 2 12 2 22 0 10 2 141 2 141 0 0-1 18-9 21-1 0-1 1 0 2 1 2 3 4 6 5z m135-47c3 3 9 4 12 1 12-11 36-32 36-34 0-2-20-16-20-16 0 0-3-16-10-17-3-1-7-1-14-1-8-1-15 5-16 13 0 0 0 0 0 1 0 4-13 14-19 18-2 1-2 3-1 4z m12-169l-14 0c-2 0-4 2-4 4l0 81c0 2 2 4 4 4l14 0c2 0 4-2 4-4l0-81c0-2-2-4-4-4z m0 179l-14 0c-2 0-4 2-4 4l0 56c0 2 2 4 4 4l14 0c2 0 4-2 4-4l0-56c0-2-2-4-4-4z"/>
<glyph glyph-name="affiliate" unicode="&#120;" d="M496 307c-24 124-135 177-175 187-41 10-144 12-233-51-3-1-55-43-58-73 0-2-1-2-1-3 0-5 10-12 31-22l127-68-27 89 0 0 0 0c-1 1-23 15-14 36 7 14-1 21-4 23-7 5-16 5-19 0-7-7-7-50-7-52l0 0 20-13-2-15-28 18-22 61c7 1 40 7 50 25 4 8 6 9 8 8 2 0 4-6 4-7l0-23 26 3c0 0 15 4 29-3 16-8 25-3 34 4 4 4 11 3 18 2 7-1 14-2 19 1 3 2 5 5 8 9 8 14 21 34 63 13 0 0 27-10 28-25 1-15 30-40 33-42l12-26c-1-3-2-26-2-33-1-7 9-41 10-44 0-3 0-61-34-73-19-7-32-10-41-5-7 3-12 11-17 26l-18 51-36 43-1 0c0 0-6 1-10-3-3-3-5-8-4-14 2-19 7-33 7-33l11-13c-1-2-3-5-6-5 0 0 0 0 0 0-3 0-8 3-16 18-14 28-17 43-18 47l27 7 4 31-38-6-66 52-1 1-6-23 0 0c0 0 16-26 20-37 4-10 24-81 24-82l0 0 133-70 6-181 0-1 1 0c0 0 28 7 64 36 32 26 48 43 69 90 16 39 31 99 18 165z m-481-90l57-16 24 99-49 24-32-107m95-25l46-13 14 83-40 20z m-23-122l48-34 19 119-49 15z m134 90l40-10 6 68-37 17z m64 51l-3-67 35-11 2 60z m-3-90l-4-107 43-1 0 97z m-72-65l45-12 6 81-41 12z m-197 138c0 0-14-40 32-79 0 0 4-8 7-5 3 4 14 70 14 70l-53 14"/>
<glyph glyph-name="search-1" unicode="&#118;" d="M499 43l-116 118 6 8c26 36 40 81 40 126 0 120-95 217-212 217-56 0-109-23-150-64-39-41-62-95-62-153 0-119 95-216 212-216 44 0 88 15 124 41l8 6 116-119c4-4 10-7 17-7 7 0 13 3 17 7 5 5 8 11 8 18 0 7-3 13-8 18z m-282 86c-90 0-163 75-163 166 0 92 73 167 163 167 90 0 163-75 163-167 0-91-73-166-163-166z"/>
<glyph glyph-name="feed" unicode="&#105;" d="M128 491l0-395c0-29-24-53-53-53-30 0-54 24-54 53l0 160c0 12 10 21 22 21 11 0 21-9 21-21l0-139 21 0 0 139c0 24-19 43-42 43-24 0-43-19-43-43l0-160c0-41 33-75 75-75l362 0c42 0 75 34 75 75l0 395z m363-395c0-29-24-53-54-53l-310 0c14 14 22 33 22 53l0 373 342 0z m-64 309l-214 0 0-149 214 0z m-22-128l-170 0 0 107 170 0z m-192-64l214 0 0-21-214 0z m0-64l160 0 0-21-160 0z"/>
<glyph glyph-name="message" unicode="&#107;" d="M363 363l0 149-363 0 0-373 121 96 28 0 0-54c0-53 43-96 96-96l146 0 121-86 0 364z m-249-107l-93-74 0 309 320 0 0-160c0-42-33-75-74-75z m377-213l-93 64-153 0c-41 0-74 33-74 74l0 54 96 0c53 0 96 43 96 96l0 10 128 0z"/>
<glyph glyph-name="search" unicode="&#112;" d="M512 15l-196 196c65 73 61 185-11 252-71 68-183 66-252-3-70-70-71-182-4-253 67-71 179-76 252-11l196-196z m-491 316c0 88 71 160 159 160 89 0 160-72 161-160 0-88-71-160-160-160-88 0-160 71-160 160z"/>
<glyph glyph-name="map" unicode="&#98;" d="M320 384l21 0 0-299-21 0z m-149 43l21 0 0-299-21 0z m-171-409l0 428 181 45 150-43 181 45 0-428-181-44-150 43z m181 67l150-42 160 39 0 384-160-39-150 42-160-40 0-383z"/>
<glyph glyph-name="my-stuff" unicode="&#65;" d="M256 512c-141 0-256-115-256-256 0-141 115-256 256-256 141 0 256 115 256 256 0 141-115 256-256 256z m0-21c129 0 235-106 235-235 0-52-17-100-46-139-8 26-29 47-61 57l-128 24-127-22c-32-9-55-30-63-58-28 38-45 86-45 138 0 129 106 235 235 235z m0-470c-67 0-128 29-171 74l0 3c0 27 20 48 49 56l122 22 123-23c15-5 48-20 48-56l0-2c-43-45-104-74-171-74z m0 214c38 0 68 30 77 75 1 8 8 43 8 53 1 46-35 84-82 85l-3 0c-22 1-44-7-60-23-16-15-25-37-25-59l0-3c0-10 7-45 8-53 9-45 39-75 77-75z m-45 175c12 10 27 17 43 17 1 0 1 0 2 0l3 0c34-1 62-30 61-64 0-5-4-28-9-48-4-29-21-59-55-59-33 0-51 31-55 59-5 20-9 43-9 48l0 3c0 17 7 32 19 44z"/>
<glyph glyph-name="close" unicode="&#102;" d="M416 401l-15 15-145-145-145 145-15-15 145-145-145-145 15-15 145 145 145-145 15 15-145 145z"/>
<glyph glyph-name="poll" unicode="&#116;" d="M459 53l0 171-107 0 0-171-43 0 0 427-106 0 0-427-43 0 0 256-107 0 0-256-42 0 0-21 490 0 0 21z m-86 150l64 0 0-150-64 0z m-149 256l64 0 0-406-64 0z m-149-171l64 0 0-235-64 0z"/>
<glyph glyph-name="news-alert" unicode="&#117;" d="M256 512c-141 0-256-115-256-256 0-141 115-256 256-256 141 0 256 115 256 256 0 141-115 256-256 256z m0-491c-130 0-235 105-235 235 0 130 105 235 235 235 130 0 235-105 235-235 0-130-105-235-235-235z m12 246l13 115c14-4 27-10 39-17l11 18c-15 9-31 16-48 20l5 38-21 3-5-39-1 0c-40 0-79-34-79-70 0-33 21-59 63-80l-14-125c-15 3-29 9-42 17l-2 1-11-18 2-1c16-10 33-17 51-21l-5-37 21-3 5 39 1 0c44 0 90 28 90 76 0 38-19 61-73 84z m-64 68c0 24 28 48 56 49l-12-107c-30 17-44 36-44 58z m48-207l13 117c46-21 55-38 55-62 0-37-39-54-68-55z"/>
<glyph glyph-name="announcement" unicode="&#68;" d="M512 491l-418-171-30 0c-35 0-64-29-64-64 0-35 29-64 64-64l30 0 49-19-11-30c-11-28 3-59 30-69l100-38c27-11 58 3 69 30l10 28 171-73z m-491-235c0 24 19 43 43 43l21 0 0-86-21 0c-24 0-43 19-43 43z m290-182c-3-8-9-14-17-18-8-3-17-4-25-1l-99 39c-17 6-25 24-19 41l12 30 159-63z m180-21l-384 157 0 92 384 157z"/>
<glyph glyph-name="alert" unicode="&#122;" d="M256 482l-256-443 512 0z m0-39l222-384-444 0z m-15-128l30 0-5-138-20 0z m35-187c0-11-9-20-20-20-11 0-20 9-20 20 0 11 9 20 20 20 11 0 20-9 20-20z"/>
<glyph glyph-name="chat-group" unicode="&#114;" d="M203 427l266 0 0-22-266 0z m0-160l266 0 0-22-266 0z m0-160l266 0 0-22-266 0z m-107 362c-29 0-53-24-53-53 0-29 24-53 53-53 29 0 53 24 53 53 0 29-24 53-53 53z m0-85c-18 0-32 14-32 32 0 18 14 32 32 32 18 0 32-14 32-32 0-18-14-32-32-32z m0-75c-29 0-53-24-53-53 0-29 24-53 53-53 29 0 53 24 53 53 0 29-24 53-53 53z m0-85c-18 0-32 14-32 32 0 18 14 32 32 32 18 0 32-14 32-32 0-18-14-32-32-32z m0-75c-29 0-53-24-53-53 0-29 24-53 53-53 29 0 53 24 53 53 0 29-24 53-53 53z m0-85c-18 0-32 14-32 32 0 18 14 32 32 32 18 0 32-14 32-32 0-18-14-32-32-32z"/>
<glyph glyph-name="medical" unicode="&#73;" d="M361 395l-11 46c-7 23-28 39-52 39l-84 0c-24 0-45-16-52-41l-11-44-151 0 0-267c0-53 43-96 96-96l320 0c53 0 96 43 96 96l0 267z m-178 39c4 15 16 25 31 25l84 0c15 0 27-10 31-24l9-40-164 0z m308-306c0-42-33-75-75-75l-320 0c-42 0-75 33-75 75l0 245 470 0z m-278-11l86 0 0 54 53 0 0 85-53 0 0 53-86 0 0-53-53 0 0-85 53 0z m-32 75l0 43 54 0 0 53 42 0 0-53 54 0 0-43-54 0 0-53-42 0 0 53z"/>
<glyph glyph-name="chat01" unicode="&#115;" d="M106 315c7-42 35-68 70-68 34 0 62 25 69 68 1 6 7 38 7 46 1 20-6 39-20 53-31 32-81 32-113 2 0-1 0-1-1-2-14-14-21-33-19-53 0-8 6-42 7-46z m25 86c24 25 63 26 88 2 0-1 0-1 1-2 10-11 16-24 15-40 0-4-5-30-7-44-5-24-21-52-52-52-32 0-48 28-53 53-2 15-7 39-7 44 0 15 5 29 15 39z m157-197l-112 15-111-15c-28-6-58-25-61-55l-4-76 355 0-5 72c-2 31-25 52-62 59z m-272-113l5 55c3 21 26 36 46 40l108 14 108-14c14-3 45-11 47-42l4-53z m294 188c6-34 29-55 58-55 29 0 51 21 57 55 1 5 7 31 7 37 0 17-6 32-17 43-26 27-68 28-94 2-1-1-1-1-2-2-11-12-16-27-15-43 0-6 5-32 6-37z m23 68c18 19 49 19 68 0 0 0 1 0 1 0 8-9 12-19 11-31 0-3-3-23-5-34-2-10-10-41-40-41-24 0-37 21-40 41-2 11-5 31-6 34 0 11 3 22 11 31z m69-274l110 0-1 69c-2 24-21 43-52 48l-90 11-1-18 89-11c10-2 35-8 37-31l2-50-94 0z"/>
<glyph glyph-name="attachement" unicode="&#121;" d="M475 475c-25 24-57 37-91 37-34 0-66-13-91-37l-256-256c-24-25-37-57-37-91 0-34 13-66 37-91 25-24 57-37 91-37 34 0 66 13 91 37l172 173c29 29 29 77 0 106-13 14-33 21-52 21-20 0-38-7-52-21l-181-182 15-15 181 182c9 9 23 16 37 16 14 0 28-6 38-16 20-20 20-55 0-76l-173-173c-21-20-47-31-76-31-29 0-55 11-76 31-20 21-31 47-31 76 0 29 11 55 31 76l256 256c21 20 47 31 76 31 29 0 55-11 76-31 20-21 31-47 31-76 0-29-11-55-31-76l-5-4 15-15 5 4c24 25 37 57 37 91 0 34-13 66-37 91z"/>
<glyph glyph-name="send" unicode="&#66;" d="M512 469l-512-144 117-110 0-172 96 82 86-82z m-88-50l-295-186-86 82z m-285-331l0 107 59-56z m6 130l318 200-173-337z"/>
<glyph glyph-name="camera" unicode="&#100;" d="M379 395l-48 64-155 0-43-64-133 0 0-246c0-53 43-96 96-96l320 0c53 0 96 43 96 96l0 246z m112-246c0-41-34-74-75-74l-320 0c-41 0-75 33-75 74l0 224 123 0 43 64 133 0 48-64 123 0z m-491 288l85 0 0-21-85 0z m256-106c-59 0-107-48-107-107 0-59 48-107 107-107 59 0 107 48 107 107 0 59-48 107-107 107z m0-192c-47 0-85 38-85 85 0 47 38 85 85 85 47 0 85-38 85-85 0-47-38-85-85-85z m203 181c0-12-10-21-22-21-11 0-21 9-21 21 0 12 10 21 21 21 12 0 22-9 22-21z"/>
<glyph glyph-name="image-photo" unicode="&#74;" d="M0 459l0-406 512 0 0 406z m104-384l108 192 78-142 50 69 68-119z m387 0l-58 0-91 158-50-68-80 144-133-234-58 0 0 362 470 0z m-91 202c27 0 48 22 48 48 0 27-21 48-48 48-27 0-48-21-48-48 0-26 21-48 48-48z m0 75c15 0 27-12 27-27 0-14-12-26-27-26-15 0-27 12-27 26 0 15 12 27 27 27z"/>
<glyph glyph-name="pin" unicode="&#71;" d="M256 299c-41 0-75 33-75 74 0 42 34 75 75 75 41 0 75-33 75-75 0-41-34-74-75-74z m0 128c-29 0-53-24-53-54 0-29 24-53 53-53 29 0 53 24 53 53 0 30-24 54-53 54z m0-427c-4 0-8 3-10 6-5 12-129 295-129 367 0 77 63 139 139 139 76 0 139-62 139-139 0-72-124-355-129-367-2-3-6-6-10-6z m0 491c-65 0-117-53-117-118 0-56 87-266 117-335 30 69 117 279 117 335 0 65-52 118-117 118z"/>
<glyph glyph-name="up-arrow" unicode="&#72;" d="M256 341l-171-155 15-15 156 140 156-140 15 15z"/>
<glyph glyph-name="right-arrow" unicode="&#111;" d="M186 427l-15-15 140-156-140-156 15-15 155 171z"/>
<glyph glyph-name="edit" unicode="&#104;" d="M256 341c-47 0-85-38-85-85 0-47 38-85 85-85 47 0 85 38 85 85 0 47-38 85-85 85z m0-149c-35 0-64 29-64 64 0 35 29 64 64 64 35 0 64-29 64-64 0-35-29-64-64-64z m204 15l52 4 0 93-52 4c-19 2-34 19-32 39 1 7 3 14 8 19l33 39-65 66-39-34c-11-8-25-10-36-5-12 4-21 16-22 29l-5 51-93 0-4-54c-1-16-14-28-19-30-13-5-29-2-39 7l-40 35-64-65 34-39c13-15 10-37-4-50-6-5-13-8-21-9l-52-3 0-93 52-4c19-2 34-19 32-38-1-8-3-14-7-20l-34-40 66-66 39 34c10 8 25 10 37 5 11-5 20-17 21-30l4-53 93 0 4 53c1 13 10 25 22 30l2 1c11 4 25 2 35-6l39-34 66 66-36 40c-8 11-10 25-5 37 5 12 17 20 30 21z m-41-72l22-24-38-37-24 21c-16 14-39 17-59 10l-2-2c-19-8-32-26-33-48l-2-34-54 0-2 33c-1 22-15 41-35 49-19 9-42 5-59-9l-24-21-39 37 22 24c20 24 17 60-7 80-8 8-20 13-32 14l-32 2 0 54 33 2c31 2 55 30 53 61-1 11-6 23-14 32l-22 24 38 38 24-22c15-14 37-18 57-10l2 3c20 7 33 25 35 47l2 32 54 0 2-32c3-31 31-55 62-52 11 2 22 6 31 13l24 22 37-38-21-24c-20-24-17-60 7-80 8-8 20-13 32-13l32-2 0-54-34-2c-30-2-54-30-52-60 4-14 9-25 16-34z"/>
<glyph glyph-name="more" unicode="&#108;" d="M64 320c-35 0-64-29-64-64 0-35 29-64 64-64 35 0 64 29 64 64 0 35-29 64-64 64z m0-107c-23 0-43 20-43 43 0 23 20 43 43 43 23 0 43-20 43-43 0-23-20-43-43-43z m192 107c-35 0-64-29-64-64 0-35 29-64 64-64 35 0 64 29 64 64 0 35-29 64-64 64z m0-107c-23 0-43 20-43 43 0 23 20 43 43 43 23 0 43-20 43-43 0-23-20-43-43-43z m192 107c-35 0-64-29-64-64 0-35 29-64 64-64 35 0 64 29 64 64 0 35-29 64-64 64z m0-107c-23 0-43 20-43 43 0 23 20 43 43 43 23 0 43-20 43-43 0-23-20-43-43-43z"/>
<glyph glyph-name="upload" unicode="&#75;" d="M169 408c3 0 5 1 6 2l72 72 0-308c0-6 4-9 9-9 5 0 9 3 9 9l0 308 72-72c3-3 8-3 12 0 3 4 3 9 0 13l-87 86c-1 1-2 2-3 2-1 1-4 1-6 0-1-1-2-1-3-2l-87-86c-3-4-3-9 0-13 2-1 4-2 6-2z m148-35c-5 0-9-3-9-9 0-5 4-8 9-8l113 0 0-339-348 0 0 339 113 0c5 0 9 3 9 8 0 6-4 9-9 9l-130 0 0-373 382 0 0 373c0 0-130 0-130 0z"/>
<glyph glyph-name="links" unicode="&#76;" d="M309 469l0-21 124 0-238-238 15-15 238 238 0-124 21 0 0 160z m96-405l-341 0 0 341 171 0 0 22-192 0 0-384 384 0 0 192-22 0z"/>
<glyph glyph-name="watch" unicode="&#77;" d="M256 512c-141 0-256-115-256-256 0-141 115-256 256-256 141 0 256 115 256 256 0 141-115 256-256 256z m0-491c-129 0-235 106-235 235 0 129 106 235 235 235 129 0 235-106 235-235 0-129-106-235-235-235z m0 235l-117 0 0-21 138 0 0 202-21 0z"/>
<glyph glyph-name="calender" unicode="&#78;" d="M0 512l0-395c0-65 52-117 117-117l278 0c65 0 117 52 117 117l0 395z m491-395c0-53-43-96-96-96l-278 0c-53 0-96 43-96 96l0 374 470 0z m-384 310l298 0 0-22-298 0z m99-165l50 29 0-195 21 0 0 231-82-45z"/>
<glyph glyph-name="add-people" unicode="&#79;" d="M431 362l0 74-22 0 0-74-74 0 0-21 74 0 0-74 22 0 0 74 74 0 0 21z m-298-38c8-48 40-79 80-79 41 0 72 30 81 79 2 7 9 45 9 54 1 23-7 45-23 62-36 36-94 37-131 2-1-1-2-2-3-3-15-16-23-38-22-61 0-10 8-49 9-54z m29 100c27 29 72 29 101 2 0-1 1-1 2-2 12-12 18-28 17-45 0-6-5-34-8-51-6-30-25-61-61-61-35 0-55 33-60 61-3 16-8 45-8 51-1 17 5 33 17 45z m181-228l-130 17-128-17c-32-6-67-28-71-64l-7-88 413 0-5 84c-2 35-29 60-72 68z m-314-130l6 63c3 25 30 41 53 46l125 16 126-17c16-2 53-13 55-47l4-62-369 0z"/>
<glyph glyph-name="contact" unicode="&#82;" d="M400 189c-14 2-28 1-41-5l-46-20c-29 18-57 40-81 65-25 25-46 52-64 82l15 42c5 12 6 26 4 39l-31 120-156-23 1-9c7-125 60-242 148-331 89-90 209-143 336-149l10 0 17 162z m76-167c-118 8-229 58-312 142-82 82-132 191-141 307l117 17 25-100c2-9 1-19-3-28l-18-51 3-4c19-33 43-64 70-92 27-27 57-50 90-70l5-3 56 24c9 4 18 5 28 3l93-21z"/>
<glyph glyph-name="archive" unicode="&#80;" d="M359 352l-15 15-78-76 0 213-20 0 0-213-77 76-16-15 103-96z m60-18l-17-11 72-108-153 0-9-30c-9-31-41-49-72-40-19 5-34 20-40 40l-8 30-154 0 72 108-17 11-85-130 20-118c7-45 46-78 92-78l272 0c46 0 85 33 92 78l20 118z m45-245c-6-34-36-60-72-60l-272 0c-36 0-66 26-72 60l-17 105 145 0 4-15c12-42 56-66 98-54 26 7 46 28 54 54l4 15 145 0z"/>
<glyph glyph-name="equalizer" unicode="&#83;" d="M508 445c0 31-22 57-53 62l0 1-21 0 0-1c-34-6-57-38-51-73 5-26 25-46 51-51l0-379 21 0 0 379c31 5 53 31 53 62z m-63-42c-23 0-42 19-42 42 0 23 19 42 42 42 23 0 42-19 42-42 0-23-19-42-42-42z m-179-158l0 263-21 0 0-263c-34-6-57-39-51-73 5-26 25-47 51-52l0-116 21 0 0 116c35 6 58 39 52 73-5 27-26 47-52 52z m-10-104c-23 0-42 18-42 42 0 23 18 42 42 42 23 0 42-19 42-42 0-24-19-42-42-42z m-179 366l0 1-21 0 0-1c-34-6-57-39-51-73 5-26 25-46 51-51l0-379 21 0 0 379c35 6 58 39 51 73-4 26-25 47-51 51z m-10-104c-23 0-42 19-42 42 0 23 19 42 42 42 23 0 42-19 42-42 0-23-19-42-42-42z"/>
<glyph glyph-name="assign" unicode="&#81;" d="M370 339l100 0-107-108 15-15 128 134-128 135-15-16 107-109-100 0c-126 0-218-83-218-197l21 0c0 103 81 176 197 176z m31-291l-374 0 0 312 115 0 0 21-135 0 0-354 415 0 0 136-21 0z"/>
<glyph glyph-name="mail" unicode="&#84;" d="M5 444l0-282c0-52 42-94 94-94l313 0c52 0 94 42 94 94l0 282z m481-282c0-40-33-73-74-73l-313 0c-40 0-73 33-73 73l0 261 459 0 0-261z m-37 202l-14 15-179-161-178 161-14-15 192-174z"/>
<glyph glyph-name="files" unicode="&#85;" d="M395 448l0 64-342 0 0-448 64 0 0-64 203 0c77 0 139 62 139 139l0 309z m-320-363l0 406 298 0 0-43-256 0 0-363z m362 54c0-65-52-118-117-118l-181 0 0 406 298 0z m-224 181l150 0 0-21-150 0z m0-85l150 0 0-22-150 0z m0-86l107 0 0-21-107 0z"/>
<glyph glyph-name="delete" unicode="&#69;" d="M183 341c7 0 12-5 12-12l0-244c0-6-5-12-12-12-7 0-12 6-12 12l0 244c0 7 5 12 12 12z m73 0c7 0 12-5 12-12l0-244c0-6-5-12-12-12-7 0-12 6-12 12l0 244c0 7 5 12 12 12z m73 0c7 0 12-5 12-12l0-244c0-6-5-12-12-12-7 0-12 6-12 12l0 244c0 7 5 12 12 12z m85 25l0-293c0-40-32-73-73-73l-170 0c-41 0-73 33-73 73l0 293 24 0 0-268c0-48 26-74 73-74l122 0c46 0 73 26 73 74l0 268z m-353 73l390 0c7 0 12-6 12-12 0-7-5-13-12-13l-390 0c-7 0-12 6-12 13 0 6 5 12 12 12z m146 73l98 0c6 0 12-5 12-12 0-7-6-12-12-12l-98 0c-6 0-12 5-12 12 0 7 6 12 12 12z"/>
<glyph glyph-name="tick" unicode="&#86;" d="M419 427l-177-307-152 150-15-15 172-170 190 331z"/>
<glyph glyph-name="sorting-arrow" unicode="&#87;" d="M483 417l-455 0c-23 0-35-17-24-30 14-18 215-267 227-282 12-14 38-14 50 0 17 21 217 269 226 281 13 16-3 31-24 31z"/>
<glyph glyph-name="clone-feed05" unicode="&#88;" d="M287 214l-73 0 0 73c0 6-5 11-10 11-6 0-11-5-11-11l0-73-73 0c-5 0-10-5-10-10 0-6 5-11 10-11l73 0 0-73c0-6 5-10 11-10 5 0 10 4 10 10l0 73 73 0c6 0 11 5 11 11 0 5-5 10-11 10z m157 293l-272 0c-34 0-62-28-62-63l0-42-42 0c-35 0-63-28-63-62l0-272c0-35 28-63 63-63l272 0c34 0 62 28 62 63l0 42 42 0c35 0 63 28 63 62l0 272c0 35-29 63-63 63z m-63-423c0-47-11-58-57-58l-240 0c-47 0-58 12-58 58l0 240c0 47 10 57 58 57l240 0c49 0 57-11 57-57z m105 104c0-47-12-57-58-57l-26 0 0 209c0 34-28 62-63 62l-208 0 0 26c0 47 10 58 57 58l240 0c50 0 58-12 58-58l0-240z"/>
<glyph glyph-name="share-2" unicode="&#89;" d="M373 341l103 0-110-110 15-14 135 135-135 135-15-14 110-110-103 0c-130 0-224-86-224-203l22 0c0 106 85 181 202 181z m32-298l-384 0 0 320 118 0 0 21-139 0 0-363 427 0 0 139-22 0z"/>
<glyph glyph-name="shield" unicode="&#90;" d="M256 512l-213-45 0-175c0-213 207-290 209-291l4-1 4 1c2 1 209 75 209 291l0 175z m192-220c0-188-164-259-192-269-26 10-192 85-192 269l0 158 192 41 192-41z"/>
<glyph glyph-name="sign-out" unicode="&#48;" d="M320 75c0-30-23-54-53-54l-224 0 0 470 224 0c30 0 53-24 53-54l0-106 21 0 0 106c0 42-33 75-74 75l-246 0 0-512 246 0c41 0 74 33 74 75l0 106-21 0z m73 279l-15-15 72-72-247 0 0-22 247 0-72-72 15-15 98 98z"/>
<glyph glyph-name="sofa" unicode="&#49;" d="M464 349c-20 4-42 0-58-13l-2-2 9 56c7 55-29 103-82 110-5 1-9 1-13 1l-124 0c-53 0-96-42-96-96 0-4 0-8 1-14l9-56-2 2c-17 12-38 16-58 13l-48-9 31-186c7-41 38-72 79-78l-24-59 21-7 24 64 248 0 26-64 21 6-25 59c41 6 74 37 81 79l30 186z m-326 105c15 16 35 26 56 26l124 0c41 0 75-33 75-75 0-3 0-7-2-10l-16-109 0-2-11-81-216 0-10 82 1 2-17 108c-4 21 2 42 16 59z m323-296c-7-36-38-62-74-62l-262 0c-36 0-67 26-74 62l-26 166 26 3c29 6 57-12 63-41 0-1 0-2 0-3l0-2 15-101 253 0 14 101 0 2c4 28 31 49 61 44 1 0 2 0 3 0l26-3z"/>
<glyph glyph-name="mic" unicode="&#50;" d="M405 309l0-53c0-82-67-149-149-149-82 0-149 67-149 149l0 53-22 0 0-53c0-91 71-164 160-170l0-86 22 0 0 86c89 6 160 80 160 170l0 53z m-149-160c59 0 107 48 107 107l0 149c0 59-48 107-107 107-59 0-107-48-107-107l0-149c0-59 48-107 107-107z m-85 256c0 47 38 86 85 86 47 0 85-39 85-86l0-149c0-47-38-85-85-85-47 0-85 38-85 85z"/>
<glyph glyph-name="no" unicode="&#51;" d="M256 512c-142 0-256-114-256-256 0-142 114-256 256-256 142 0 256 114 256 256 0 142-114 256-256 256z m-151-77c42 36 96 56 151 56 57 0 111-21 154-58l-333-328c-83 99-72 246 28 330z m313-349c-44-41-101-65-162-65-62 0-121 25-164 68l334 329c89-94 86-242-8-332z"/>
<glyph glyph-name="list" unicode="&#52;" d="M53 416l406 0 0-21-406 0z m0-149l406 0 0-22-406 0z m0-150l406 0 0-21-406 0z"/>
<glyph glyph-name="safe" unicode="&#53;" d="M11 512l0-373c0-54 42-96 96-96l298 0c54 0 96 42 96 96l0 373z m469-373c0-42-33-75-75-75l-298 0c-42 0-75 33-75 75l0 352 448 0z m-427-118l64 0 0-21-64 0z m342 0l64 0 0-21-64 0z m-86 160c54 0 96 43 96 96 0 54-42 96-96 96-53 0-96-42-96-96 0-53 43-96 96-96z m0 171c42 0 75-33 75-75 0-41-33-74-75-74-41 0-74 33-74 74 0 42 33 75 74 75z m-192 32l22 0 0-213-22 0z"/>
<glyph glyph-name="washing-machine" unicode="&#54;" d="M43 512l0-416c0-53 42-96 96-96l234 0c54 0 96 43 96 96l0 416z m405-416c0-42-33-75-75-75l-234 0c-42 0-75 33-75 75l0 288 384 0z m0 309l-384 0 0 86 384 0z m-21 43c0-12-10-21-22-21-11 0-21 9-21 21 0 12 10 21 21 21 12 0 22-9 22-21z m-64 0c0-12-10-21-22-21-11 0-21 9-21 21 0 12 10 21 21 21 12 0 22-9 22-21z m-107-363c65 0 117 53 117 118 0 65-52 117-117 117-65 0-117-52-117-117 0-65 52-118 117-118z m0 214c53 0 96-43 96-96 0-54-43-96-96-96-53 0-96 42-96 96 0 53 43 96 96 96z"/>
<glyph glyph-name="water-drop" unicode="&#55;" d="M377 348l-121 126-121-126c-66-71-66-182 0-253l8-8c31-29 71-44 113-44 2 0 4 0 5 0 44 1 86 20 116 52 66 71 66 181 0 253z m-15-238c-27-29-62-45-101-46-38-1-74 13-103 38l-8 8c-58 63-58 161 0 223l106 111 106-110c58-64 58-161 0-224z"/>
<glyph glyph-name="wranch" unicode="&#56;" d="M381 211l-12-12-46 45 42 42 29-1c27-1 54 13 68 37l51 89-35 35-57-57-30 30 57 57-38 38-87-53c-22-14-36-40-35-66l1-32-46-46-98 99-12 68-103 26-32-31 30-99 64-16 100-101-174-173c-9-10-16-24-16-38 0-14 5-27 16-38 10-10 24-16 37-16 14 0 28 5 38 16l174 174 46-45-15-15 113-112c11-12 26-17 41-17 15 0 30 5 42 17 22 22 22 60 0 83z m-279 172l-57 14-23 74 14 14 78-19 11-61 104-104-22-23z m151-180l-175-174c-7-7-14-10-23-10-8 0-17 3-22 10-6 6-10 14-10 22 0 9 4 17 10 23l174 173 53 54 53 52-3 42c-1 19 9 37 26 47l73 44 10-10-56-57 60-61 57 57 7-8-42-73c-10-17-29-28-49-27l-39 2-48-49z m30 0l26 26 46-44-26-27z m196-172c-15-15-38-15-53 0l-97 97 53 53 98-97c14-15 14-38-1-53z"/>
<glyph glyph-name="help" unicode="&#57;" d="M256 512c-141 0-256-115-256-256 0-141 115-256 256-256 141 0 256 115 256 256 0 141-115 256-256 256z m0-491c-130 0-235 105-235 235 0 130 105 235 235 235 130 0 235-105 235-235 0-130-105-235-235-235z m8 374c-21 2-42-5-58-19-16-14-25-35-25-56l22 0c0 26 18 48 44 53 25 4 50-11 59-35 9-24-1-52-24-64-23-14-37-39-37-65l0-17 22 0 0 17c0 19 10 36 26 46 28 16 43 48 37 80-7 32-33 56-66 60z m13-256c0-12-9-22-21-22-12 0-21 10-21 22 0 11 9 21 21 21 12 0 21-10 21-21z"/>
<glyph glyph-name="clipboard" unicode="&#33;" d="M309 448l0 11c0 30-23 53-53 53-30 0-53-23-53-53l0-11-150 0 0-448 406 0 0 448z m-138-21l170 0 0-32c0-7-4-11-10-11l-150 0c-6 0-10 4-10 11z m53 32c0 18 14 32 32 32 18 0 32-14 32-32l0-11-64 0z m213-438l-362 0 0 406 74 0 0-32c0-18 14-32 32-32l150 0c18 0 32 14 32 32l0 32 74 0z"/>
<glyph glyph-name="plug" unicode="&#34;" d="M437 299c-58 0-106-48-106-107l0-85c0-47-39-86-86-86-47 0-85 39-85 86l0 65c65 5 117 61 117 127l0 106-64 0 0 107-21 0 0-107-85 0 0 107-22 0 0-107-64 0 0-106c0-68 53-122 118-127l0-65c0-59 48-107 106-107 59 0 107 48 107 107l0 85c0 47 38 85 85 85l54 0 0 22z m-394 0l0 85 213 0 0-85c0-59-48-107-107-107-58 0-106 48-106 107z"/>
<glyph glyph-name="user" unicode="&#35;" d="M256 235c-50 0-90 38-100 97-1 5-11 56-12 68-2 28 9 54 28 76 22 23 52 36 84 36 31 0 61-13 82-35 20-22 31-48 30-77l0-1c-1-11-11-62-12-67-10-59-50-97-100-97z m0 256c-26 0-50-11-68-30-16-17-24-38-23-60 1-8 9-50 12-66 6-36 31-79 79-79 48 0 73 44 79 81 3 15 11 57 12 65 1 23-8 44-24 61-17 17-41 28-67 28z m258-491l-515 0 14 99c5 30 31 54 68 61l175 32 176-31c38-8 63-31 67-61z m-492 21l467 0-11 76c-4 30-36 41-50 44l-172 30-172-31c-13-3-46-13-51-44z"/>
<glyph glyph-name="01" unicode="&#36;" d="M319 421c0 1-1 2-2 2-35 34-90 33-124-2-15-16-23-37-22-59 0-9 7-45 8-52 9-47 39-76 77-76 39 0 69 30 77 76 1 4 8 42 8 51 1 23-6 44-22 60z m1-58c0-6-5-33-8-49-5-27-22-58-56-58-33 0-51 30-56 58-3 16-8 43-8 49-1 16 5 32 17 44 0 0 1 1 2 2 26 25 68 24 93-3 11-11 17-27 16-43z m75-11l0-21 117 0 0 106-21 0 0-74c-2 1-3 2-4 3-61 128-213 182-341 121-128-61-182-213-121-341 61-128 213-182 341-121 87 41 144 129 146 225 0 2 0 6 0 6l-21 0c0 0 0-3 0-4-1-48-17-96-46-135-9 29-33 51-62 57l-127 24-128-24c-32-11-54-31-61-57-77 105-54 251 50 328 104 77 251 54 328-50 9-12 16-24 22-37 1-2 3-6 3-6l-6 0z m-310-254c0 35 34 50 49 55l122 23 122-23c23-6 49-24 49-55l0-3c-44-47-106-74-171-74-65 0-127 27-171 74z"/>
<glyph glyph-name="box-alt" unicode="&#37;" d="M0 469l0-106 33 0 15-231c3-50 46-89 96-89l224 0c50 0 93 39 96 89l15 231 33 0 0 106z m443-335c-4-39-36-70-75-70l-224 0c-39 0-71 31-75 70l-15 229 127 0 0-64 150 0 0 64 127 0z m-134 229l0-43-106 0 0 43z m182 21l-470 0 0 64 470 0z"/>
<glyph glyph-name="cloud-upload" unicode="&#38;" d="M256 298l-93-93 15-15 67 67 0-236 22 0 0 236 67-67 15 15z m148 65c-10 72-73 128-148 128-82 0-149-68-149-150l0-10-6 0c-50 0-91-37-100-86l-1 0 0-117 171 0 0 21-150 0 0 85c2 42 38 75 80 75l27 0 0 32c0 71 58 128 128 128 66 0 123-52 128-118l1-10 10 0c53 0 96-42 96-96 0-53-43-96-96-96l-54 0 0-21 54 0c65 0 117 52 117 117 0 62-48 112-108 118z"/>
<glyph glyph-name="copy" unicode="&#39;" d="M21 32l-21 0 0-32 32 0 0 21-11 0z m64 288l0 21-10 0c-11 0-23-2-32-7l9-19c7 3 15 5 23 5z m-85-203l21 0 0-42-21 0z m0 86l21 0 0-43-21 0z m21 64c0 7 2 16 6 22l-20 10c-5-10-7-22-7-32l0-11 21 0z m203 74l43 0 0-21-43 0z m117 0l-32 0 0-21 11 0 0-11 21 0z m-21-266c0-8-2-16-5-23l19-9c4 9 7 21 7 32l0 10-21 0z m0 192l21 0 0-43-21 0z m-53-246l-11 0 0-21 11 0c10 0 22 2 32 7l-10 20c-6-4-15-6-22-6z m-107 0l43 0 0-21-43 0z m-85 0l42 0 0-21-42 0z m160 491c-36 0-64-29-64-64l0-107-32 0 0-21 42 0 0 21 11 0 0 107c0 23 19 43 43 43l256 0 0-256c0-24-20-43-43-43l-107 0 0-11-21 0 0-42 21 0 0 32 107 0c35 0 64 28 64 64l0 277z"/>
<glyph glyph-name="like" unicode="&#40;" d="M371 480c-46 0-88-22-115-60-45 64-132 79-196 34-38-26-60-69-60-115 0-67 35-133 106-199 44-40 93-76 145-107l5-1 5 2c52 32 100 67 145 107 73 65 106 128 106 199 0 77-63 140-141 140z m20-324c-42-38-88-71-135-101-48 30-94 63-135 101-67 62-100 122-100 183 0 66 54 120 120 120 45 0 85-25 105-64l10-18 10 18c31 58 102 81 161 50 39-20 64-62 64-106 0-64-31-122-100-183z"/>
<glyph glyph-name="shar" unicode="&#41;" d="M437 160c-24 0-47-12-61-32l-227 120c1 6 1 12 0 17l226 120c22-33 66-43 100-23 34 19 47 62 30 97-17 35-59 51-95 37-37-14-56-55-44-92l-223-117c-14 32-49 50-84 43-35-7-59-38-59-73 0-36 24-66 59-73 35-8 70 10 84 43l223-118c-10-30 0-64 26-84 26-19 62-19 88-1 26 19 38 53 28 84-10 31-38 52-71 52z m0 320c30 0 54-24 54-53 0-30-24-54-54-54-29 0-53 24-53 54 0 29 24 53 53 53z m-362-277c-30 0-54 24-54 53 0 29 24 53 54 53 29 0 53-24 53-53 0-29-24-53-53-53z m362-171c-29 0-53 24-53 53 0 30 24 54 53 54 30 0 54-24 54-54 0-29-24-53-54-53z"/>
<glyph glyph-name="preview" unicode="&#109;" d="M256 96c-140 0-250 147-254 154l-4 6 4 6c4 7 114 154 254 154 140 0 250-147 254-154l4-6-4-6c-4-7-114-154-254-154z m-231 160c22-28 118-139 231-139 113 0 209 111 231 139-22 28-118 139-231 139-113 0-209-111-231-139z m231-85c-47 0-85 38-85 85 0 47 38 85 85 85 47 0 85-38 85-85 0-47-38-85-85-85z m0 149c-35 0-64-29-64-64 0-35 29-64 64-64 35 0 64 29 64 64 0 35-29 64-64 64z"/>
<glyph glyph-name="add-plus" unicode="&#97;" d="M270 270l0 242-28 0 0-242-242 0 0-28 242 0 0-242 28 0 0 242 242 0 0 28z"/>
<glyph glyph-name="location01" unicode="&#67;" d="M512 267l-64 0c-5 97-83 176-181 181l0 64-22 0 0-64c-97-5-176-84-181-181l-64 0 0-22 65 0c5-97 83-175 180-180l0-65 22 0 0 65c97 5 175 83 180 180l65 0z m-256-182c-94 0-171 77-171 171 0 94 77 171 171 171 94 0 171-77 171-171 0-94-77-171-171-171z m32 171c0-18-14-32-32-32-18 0-32 14-32 32 0 18 14 32 32 32 18 0 32-14 32-32z"/>
<glyph glyph-name="back-arrow" unicode="&#99;" d="M512 269l-463 0 225 225-18 18-256-256 256-256 18 18-225 225 463 0z"/>
<glyph glyph-name="world" unicode="&#70;" d="M512 256c0 140-113 254-252 256-1 0-1 0-2 0 0 0 0 0-1 0 0 0-1 0-1 0-141 0-256-115-256-256 0-141 115-256 256-256 0 0 1 0 1 0 0 0 0 0 1 0 1 0 1 0 2 0 139 2 252 116 252 256z m-70-144c-16 11-40 23-80 33 6 30 9 64 10 100l119 0c-2-50-21-96-49-133z m-183-91c-1 0-1 0 0 0-30 0-61 41-78 108 21 3 45 5 76 5 32 0 58-2 80-5-19-67-49-107-78-108z m-3 135c-32 0-59-2-80-6-5 28-10 60-10 95l186 0c-1-35-4-67-11-96-23 5-51 7-85 7z m2 335c29 0 59-39 77-102-21-3-47-5-79-5-30 0-53 2-74 4 17 64 47 103 76 103z m-2-128c34 0 61 2 83 5 7-30 11-64 12-101l-186 0c1 37 5 71 12 101 21-3 47-5 79-5z m181 41c31-37 50-85 53-137l-118 0c-1 38-5 73-11 105 37 9 58 21 76 31 0 0 0 1 0 1z m-82-11c-10 38-25 70-45 91 44-10 83-33 113-64-16-9-35-20-68-27z m-148 92c-19-21-35-53-46-94-36 8-56 19-72 28 30 33 72 57 118 66z m-133-82c17-10 40-23 82-32-7-32-11-67-12-104l-123 0c4 51 22 99 53 136z m-1-290c0 0-2-1-2-1-29 37-48 83-50 133l123 0c1-35 4-69 11-99-41-8-64-22-82-33z m12-17c18 11 39 22 75 30 11-43 28-77 47-99-48 10-90 35-122 69z m225-68c20 22 36 55 46 97 34-8 56-19 71-29-30-33-71-58-117-68z"/>
<glyph glyph-name="do-not-enter" unicode="&#42;" d="M256 0c-141 0-256 115-256 256 0 141 115 256 256 256 141 0 256-115 256-256 0-141-115-256-256-256z m0 491c-129 0-235-106-235-235 0-129 106-235 235-235 129 0 235 106 235 235 0 129-106 235-235 235z m-128-224l256 0 0-22-256 0z"/>
<glyph glyph-name="money-alt" unicode="&#43;" d="M64 427l0-64-64 0 0-278 448 0 0 64 64 0 0 278z m363-320l-406 0 0 234 406 0z m64 64l-43 0 0 192-363 0 0 42 406 0z m-267-22c42 0 75 33 75 75 0 42-33 75-75 75-42 0-75-33-75-75 0-42 33-75 75-75z m0 128c30 0 53-23 53-53 0-30-23-53-53-53-30 0-53 23-53 53 0 30 23 53 53 53z"/>
<glyph glyph-name="map-marker" unicode="&#44;" d="M256 512c-102 0-185-83-185-185 0-36 11-70 27-98l121-209c7-13 23-20 37-20 14 0 29 7 37 20l121 209c16 28 27 61 27 98 0 102-83 185-185 185z m0-240c-37 0-68 31-68 68 0 37 31 67 68 67 37 0 68-30 68-67 0-38-31-68-68-68z"/>
<glyph glyph-name="location-1" unicode="&#45;" d="M256 228c53 0 96 43 96 96 0 53-43 96-96 96-53 0-96-43-96-96 0-53 43-96 96-96z m0 176c44 0 80-36 80-80 0-44-36-80-80-80-44 0-80 36-80 80 0 44 36 80 80 80z m0 108c-106 0-192-85-192-192 0-112 96-227 166-307 0 0 12-13 25-13 0 0 2 0 2 0 13 0 25 13 25 13 70 80 166 195 166 307 0 107-86 192-192 192z m2-478c0 0-1-1-2-2 0 1-2 2-2 2-59 68-158 182-158 286 0 88 72 160 160 160 88 0 160-72 160-160 0-104-99-218-158-286z"/>
<glyph glyph-name="location-pin" unicode="&#46;" d="M256 512c-94 0-171-76-171-171 0-163 171-341 171-341 0 0 171 178 171 341 0 95-77 171-171 171z m0-274c-56 0-101 45-101 101 0 56 45 102 101 102 56 0 101-46 101-102 0-56-45-101-101-101z"/>
<glyph glyph-name="star-1" unicode="&#58;" d="M512 309l-195 0-61 192-61-192-195 0 157-108-61-190 160 117 160-117-61 190z m-139-240l-117 86-117-86 43 140-114 79 142 0 46 146 46-146 142 0-114-79z"/>
<glyph glyph-name="star" unicode="&#47;" d="M256 469l54-170 170 0-137-94 51-162-138 99-138-99 51 162-137 94 170 0z"/>
<glyph glyph-name="line-chart" unicode="&#59;" d="M204 299l129-106 166 227-17 13-153-210-128 107-124-158 17-13z m-183-235l0 405-21 0 0-426 512 0 0 21z"/>
<glyph glyph-name="image" unicode="&#60;" d="M0 459l0-406 512 0 0 406z m104-384l108 192 78-142 50 69 68-119z m387 0l-58 0-91 158-50-68-80 144-133-234-58 0 0 362 470 0z m-91 202c27 0 48 22 48 48 0 27-21 48-48 48-27 0-48-21-48-48 0-26 21-48 48-48z m0 75c15 0 27-12 27-27 0-14-12-26-27-26-15 0-27 12-27 26 0 15 12 27 27 27z"/>
<glyph glyph-name="move" unicode="&#61;" d="M421 347l-15-14 66-66-205 0 0 205 66-66 14 15-91 91-91-91 14-15 66 66 0-205-205 0 66 66-15 14-91-91 91-91 15 14-66 66 205 0 0-205-66 66-14-15 91-91 91 91-14 15-66-66 0 205 205 0-66-66 15-14 91 91z"/>
<glyph glyph-name="sort" unicode="&#62;" d="M402 201c0-5-2-9-5-13l-128-128c-4-3-8-5-13-5-5 0-9 2-13 5l-128 128c-3 4-5 8-5 13 0 10 8 18 18 18l256 0c10 0 18-8 18-18z m0 110c0-10-8-18-18-18l-256 0c-10 0-18 8-18 18 0 5 2 9 5 13l128 128c4 3 8 5 13 5 5 0 9-2 13-5l128-128c3-4 5-8 5-13z"/>
<glyph glyph-name="heart-fill" unicode="&#63;" d="M371 480c-46 0-88-22-115-60-45 64-132 79-196 34-38-26-60-69-60-115 0-67 35-133 106-199 44-40 93-76 145-107l5-1 5 2c52 32 100 67 145 107 73 65 106 128 106 199 0 77-63 140-141 140z"/>
<glyph glyph-name="facebook1" unicode="&#64;" d="M296 0l-110 0 0 230-61 0 0 105 61 0 0 59c0 55 34 118 130 118 34 0 59-3 60-3l10-2-3-98-11 0c0 0-25 0-53 0-20 0-23-5-23-25l0-49 91 0-5-105-86 0 0-230z m-87 23l65 0 0 229 86 0 3 60-89 0 0 72c0 24 5 48 45 48 17 0 32 0 42 0l2 55c-11 1-27 2-47 2-79 0-107-49-107-95l0-82-61 0 0-60 61 0 0-229z"/>
<glyph glyph-name="twitter" unicode="&#91;" d="M173 55c-49 0-99 14-142 40l-31 18 36 0c1 0 3 0 6 0 14 0 58 2 102 27-33 10-61 36-73 70l-5 17 15-4c-25 19-41 49-43 81l-1 16 15-6c2-2 5-3 8-4-21 29-33 73-7 120l7 13 9-12c43-56 107-90 177-94-1 4-1 8-1 9 0 52 39 106 105 106 28 0 54-11 74-31 26 6 52 22 52 22l23 14-9-25c-4-13-10-24-19-34 5 2 9 4 14 6l27 13-11-25c-10-20-26-37-45-48 4-67-24-143-74-198-37-41-103-90-207-91z m-101 41c32-14 66-22 101-22l2 0c97 1 158 47 193 85 48 53 74 126 68 190l-1 7 6 3c10 4 19 11 26 18-8-2-17-3-27-5l-7-1-6 15 7 5c9 6 17 13 24 21-11-4-23-8-35-11l-6-1-3 4c-17 18-40 28-64 28-54 0-86-43-86-86 0-2 2-14 2-17l4-12-14 0c-74 2-144 34-192 90-20-50 13-91 28-103l23-18-29 1c-9 0-18 1-26 3 7-33 34-61 69-68l38-8-38-11c-6-2-14-3-22-3-3 0-7 1-10 1 15-27 43-44 74-46l27-1-22-16c-37-28-76-39-104-42z"/>
<glyph glyph-name="house" unicode="&#93;" d="M256 512l-213-176 0-240c0-53 43-96 96-96l234 0c53 0 96 43 96 96l0 240z m43-491l-86 0 0 128 86 0z m149 75c0-41-33-75-75-75l-53 0 0 150-128 0 0-150-53 0c-42 0-75 34-75 75l0 230 192 158 192-158z"/>
<glyph glyph-name="thermometer" unicode="&#94;" d="M309 176l0 283c0 29-24 53-53 53-29 0-53-24-53-53l0-283c-29-19-45-52-43-86 3-49 42-87 91-90l5 0c53 0 96 43 96 96 0 32-16 62-43 80z m-1-134c-15-14-35-22-56-21-32 2-60 25-68 57-7 32 7 65 35 82l5 3 0 296c0 17 14 32 32 32 18 0 32-15 32-32l0-295 5-3c23-14 38-38 38-65 0-20-9-40-23-54z m-41 84l0 162-22 0 0-162c-14-5-23-20-21-36 3-15 16-26 32-26 16 0 29 11 32 26 2 16-7 31-21 36z"/>
<glyph glyph-name="cross-02" unicode="&#95;" d="M512 487l-25 25-231-231-231 231-25-25 231-231-231-231 25-25 231 231 231-231 25 25-231 231z"/>
<glyph glyph-name="cloud-download" unicode="&#96;" d="M245 267l22 0 0-256-22 0z m11-271l-93 93 15 14 78-77 78 77 15-14z m139 153l-54 0 0 22 54 0c53 0 96 42 96 96 0 53-43 96-96 96l-10 0-1 9c-6 66-62 119-128 119-70 0-128-58-128-128l0-32-27 0c-41 0-76-33-80-76l0-84 150 0 0-22-171 0 0 107c3 54 48 96 101 96l6 0 0 11c0 82 67 149 149 149 74 0 137-55 148-128 60-5 108-55 108-117 0-65-52-118-117-118z"/>
<glyph glyph-name="volume-medium" unicode="&#123;" d="M43 320l0-128 92 0 142-117 0 362-142-117z m213 72l0-272-113 93-79 0 0 86 79 0z m162 23l-17-13c31-43 47-94 47-146 0-52-17-103-48-145l17-12c34 45 52 100 52 157 0 57-17 112-51 159z m-88-51c43-65 44-149 1-214l18-11c47 72 47 165-1 236z"/>
<glyph glyph-name="volume-mute" unicode="&#124;" d="M231 320l-92 0 0-128 92 0 142-117 0 362z m121-200l-113 93-79 0 0 86 79 0 113 93z"/>
<glyph glyph-name="modify" unicode="&#125;" d="M448 288l0-267-384 0 0 406 213 0 0 21-234 0 0-448 426 0 0 288z m-250-210l101 78 123 213-85 48-122-213z m37 119l110 191 48-27-110-191-57-44z m228 242c13 23 5 53-18 66-23 14-53 6-67-18l-28-48 85-49z m-84 7l18 31c7 13 24 18 37 10 13-8 18-24 10-38l-17-30z"/>
<glyph glyph-name="selection" unicode="&#126;" d="M203 427l266 0 0-22-266 0z m0-160l266 0 0-22-266 0z m0-160l266 0 0-22-266 0z m-107 362c-30 0-53-23-53-53 0-30 23-53 53-53 30 0 53 23 53 53 0 30-23 53-53 53z m0-85c-18 0-32 14-32 32 0 18 14 32 32 32 18 0 32-14 32-32 0-18-14-32-32-32z m0 46c-7 0-14-7-14-14 0-7 7-14 14-14 7 0 14 7 14 14 0 7-7 14-14 14z m0-281c-30 0-53-23-53-53 0-30 23-53 53-53 30 0 53 23 53 53 0 30-23 53-53 53z m0-85c-18 0-32 14-32 32 0 18 14 32 32 32 18 0 32-14 32-32 0-18-14-32-32-32z m-53 245l0-106 106 0 0 106z m85-85l-64 0 0 64 64 0z"/>
<glyph glyph-name="refresh" unicode="&#92;" d="M160 341l-84 0c41 53 85 107 181 107 106 0 191-86 191-192l21 0c0 118-95 213-212 213-102 0-151-56-193-108l0 76-21 0 0-117 117 0z m192-170l75 0c0 0 9 0 9 0-43-53-86-107-181-107-106 1-191 86-191 192l-21 0c0-117 94-213 212-213 102 0 150 56 193 108l0-76 21 0 0 117-117 0z"/>
<glyph glyph-name="reset" unicode="&#57344;" d="M437 213c0-106-86-192-192-192-106 0-192 86-192 192 0 106 86 192 192 192l60 0-75-70 15-15 101 96-101 96-15-15 75-70-60 0c-117 0-213-96-213-214 0-117 96-213 213-213 118 0 214 96 214 213z"/>
</font>
</defs>
</svg>
